<?xml version="1.0" encoding="UTF-8" standalone="no"?>
<svg
   xmlns:dc="http://purl.org/dc/elements/1.1/"
   xmlns:cc="http://creativecommons.org/ns#"
   xmlns:rdf="http://www.w3.org/1999/02/22-rdf-syntax-ns#"
   xmlns:svg="http://www.w3.org/2000/svg"
   xmlns="http://www.w3.org/2000/svg"
   id="svg8"
   version="1.1"
   viewBox="0 0 156.36874 21.563541"
   height="21.563541mm"
   width="156.36874mm">
  <defs
     id="defs2" />
  <metadata
     id="metadata5">
    <rdf:RDF>
      <cc:Work
         rdf:about="">
        <dc:format>image/svg+xml</dc:format>
        <dc:type
           rdf:resource="http://purl.org/dc/dcmitype/StillImage" />
        <dc:title></dc:title>
      </cc:Work>
    </rdf:RDF>
  </metadata>
  <g
     transform="translate(-30.030208,-78.454159)"
     style="display:inline"
     id="layer1" />
  <g
     transform="translate(-30.030208,-78.454159)"
     style="display:inline"
     id="layer2">
    <path
       id="path4524"
       transform="scale(0.26458333)"
       d="m 148.33398,313.51953 -23.55664,48.80078 h 12.55664 l 5,-11.02343 h 22.55469 l 5.44531,11.02343 h 12.33204 l -23,-48.80078 z m 5.33204,13.22266 6.77929,15.33398 h -13.66797 z"
       style="fill:#3c68af;fill-opacity:1;stroke:none;stroke-width:0.99999994px;stroke-linecap:butt;stroke-linejoin:miter;stroke-opacity:1" />
    <path
       id="path4528"
       d="m 50.300231,95.86374 -0.0294,-12.911662 h 3.116204 l 6.673379,7.878707 V 82.952078 H 63.17662 V 95.86374 h -2.763427 l -6.879167,-8.119759 -0.0294,8.119759 z"
       style="fill:#3c68af;fill-opacity:1;stroke:none;stroke-width:0.26458332px;stroke-linecap:butt;stroke-linejoin:miter;stroke-opacity:1" />
    <path
       id="path4530"
       transform="scale(0.26458333)"
       d="M 270.22266,313.51953 247,362.32031 h 12.22266 l 4.88867,-10.80078 22.66601,-0.22265 5.55664,11.02343 h 12.44336 l -23.22265,-48.80078 z m 5.22265,12.88867 6.88867,15.33399 -13.88867,0.44336 z"
       style="fill:#3c68af;fill-opacity:1;stroke:none;stroke-width:0.99999994px;stroke-linecap:butt;stroke-linejoin:miter;stroke-opacity:1" />
    <path
       id="path4536"
       d="m 92.574768,92.094907 2.028473,1.852082 c -4.197137,4.020153 -13.20297,2.61644 -13.229167,-4.968287 1.313262,-8.832639 11.471771,-6.726297 13.023379,-4.262731 l -1.940279,2.146064 c -4.678062,-3.909954 -7.840234,0.119016 -7.996296,2.146065 0.60516,6.914437 7.198979,4.481579 8.11389,3.086807 z"
       style="fill:#3c68af;fill-opacity:1;stroke:none;stroke-width:0.26458332px;stroke-linecap:butt;stroke-linejoin:miter;stroke-opacity:1" />
    <path
       id="path4538"
       d="m 100.18889,80.335648 h 1.20532 l -0.0294,17.580091 h -1.08773 z"
       style="fill:#63b4ec;fill-opacity:1;stroke:none;stroke-width:0.26458332px;stroke-linecap:butt;stroke-linejoin:miter;stroke-opacity:1" />
    <path
       id="path4540"
       transform="scale(0.26458333)"
       d="m 413.66602,309.29688 -10.88868,23.33398 h 6 L 411,327.18555 h 9.88867 l 2.22266,5.44531 h 6.44336 L 419,309.29688 Z M 416,316.4082 l 3.11133,6.22266 H 413 Z"
       style="fill:#63b4ec;fill-opacity:1;stroke:none;stroke-width:0.99999994px;stroke-linecap:butt;stroke-linejoin:miter;stroke-opacity:1" />
    <path
       id="path4544"
       d="m 112.88889,81.834949 h 1.79328 l 1.6463,4.203938 1.6169,-4.203938 h 1.70509 l -2.64583,6.17361 h -1.26412 z"
       style="fill:#63b4ec;fill-opacity:1;stroke:none;stroke-width:0.26458332px;stroke-linecap:butt;stroke-linejoin:miter;stroke-opacity:1" />
    <path
       id="path4546"
       d="m 120.6206,81.834949 h 1.38171 l 0.0588,6.17361 H 120.65 Z"
       style="fill:#63b4ec;fill-opacity:1;stroke:none;stroke-width:0.26458332px;stroke-linecap:butt;stroke-linejoin:miter;stroke-opacity:1" />
    <path
       id="path4548"
       transform="scale(0.26458333)"
       d="M 476.44531,309.29688 466,332.63086 h 5.88867 l 1.88867,-5.22266 10.33399,0.11133 2.11133,5.11133 h 6.11132 l -10.44531,-23.33398 z m 2.66602,6.88867 3.11133,6.66797 h -6.55664 z"
       style="fill:#63b4ec;fill-opacity:1;stroke:none;stroke-width:0.99999994px;stroke-linecap:butt;stroke-linejoin:miter;stroke-opacity:1" />
    <path
       id="path4554"
       d="m 135.55486,83.687035 c -2.46684,-1.497136 -3.61857,0.516564 -3.52777,1.175926 0,0 0.23937,2.876822 3.46897,1.234722 l 0.97014,0.940742 c -1.54436,0.970136 -5.36556,2.34202 -5.99722,-2.175464 0.31035,-4.182219 5.42591,-3.270553 6.05602,-2.057869 z"
       style="fill:#63b4ec;fill-opacity:1;stroke:none;stroke-width:0.26458332px;stroke-linecap:butt;stroke-linejoin:miter;stroke-opacity:1" />
    <path
       id="path4556"
       d="m 137.64213,81.834949 h 1.32291 l -0.0588,6.17361 h -1.41111 z"
       style="fill:#63b4ec;fill-opacity:1;stroke:none;stroke-width:0.26458332px;stroke-linecap:butt;stroke-linejoin:miter;stroke-opacity:1" />
    <path
       id="path4562"
       transform="scale(0.26458333)"
       d="m 544.33398,309.4082 c 0.0753,0 -12.43958,-0.36705 -13.33398,10.88868 -0.73195,9.21138 6.41844,11.76028 12.77734,12.11132 8.9014,-0.0851 13.19981,-4.81123 13.33399,-12.22265 -0.0275,-3.40899 -3.77746,-10.38412 -12.77735,-10.77735 z m 0.0332,4.94532 c 2.82895,0.0882 5.59324,1.84491 6.63281,6.05468 0,0 0.44424,2.6671 -2.11133,5.22266 -2.55556,2.55555 -5.11133,2.11133 -5.11133,2.11133 0,0 -7.44468,-0.33356 -7.11132,-7.11133 0.31947,-3.74494 4.06394,-6.3908 7.70117,-6.27734 z"
       style="fill:#63b4ec;fill-opacity:1;stroke:none;stroke-width:0.99999994px;stroke-linecap:butt;stroke-linejoin:miter;stroke-opacity:1" />
    <path
       id="path4568"
       d="m 143.49236,81.24699 1.05833,0.08819 1.08773,-0.705554 -1.05833,-0.64676 z"
       style="fill:#63b4ec;fill-opacity:1;stroke:none;stroke-width:0.26458332px;stroke-linecap:butt;stroke-linejoin:miter;stroke-opacity:1" />
    <path
       id="path4572"
       d="m 148.46653,81.823189 -0.0177,6.208889 h 1.34055 l 0.0353,-3.774718 3.24555,3.774718 h 1.19945 l 0.0177,-6.208889 h -1.39347 l 0.0353,3.721811 -3.19263,-3.721811 z"
       style="fill:#63b4ec;fill-opacity:1;stroke:none;stroke-width:0.26458332px;stroke-linecap:butt;stroke-linejoin:miter;stroke-opacity:1" />
    <path
       id="path4574"
       d="m 165.62916,81.823189 h 1.39348 l -0.0706,6.208889 h -1.30528 z"
       style="fill:#63b4ec;fill-opacity:1;stroke:none;stroke-width:0.26458332px;stroke-linecap:butt;stroke-linejoin:miter;stroke-opacity:1" />
    <path
       id="path4576"
       d="m 164.62375,82.758054 -0.97014,0.98778 c -1.11427,-1.081659 -3.25417,-1.212425 -3.52778,1.269998 0.12902,1.486575 1.74974,2.304784 3.47486,1.075972 l 0.9525,0.899583 c -0.81647,1.093898 -5.12944,2.409048 -5.99722,-1.975556 0.15466,-3.87037 4.57387,-3.94685 6.06778,-2.257777 z"
       style="fill:#63b4ec;fill-opacity:1;stroke:none;stroke-width:0.26458332px;stroke-linecap:butt;stroke-linejoin:miter;stroke-opacity:1" />
    <path
       id="path4578"
       d="m 168.31027,81.858471 2.6282,6.155967 h 1.32292 l 2.69875,-6.155967 h -1.76389 l -1.5875,4.233333 -1.72861,-4.233333 z"
       style="fill:#63b4ec;fill-opacity:1;stroke:none;stroke-width:0.26458332px;stroke-linecap:butt;stroke-linejoin:miter;stroke-opacity:1" />
    <path
       id="path4580"
       d="m 175.68333,81.858471 h 1.39347 l -0.0176,6.155967 h -1.32291 z"
       style="fill:#63b4ec;fill-opacity:1;stroke:none;stroke-width:0.26458332px;stroke-linecap:butt;stroke-linejoin:miter;stroke-opacity:1" />
    <path
       id="path4582"
       d="m 178.84069,81.858471 v 6.155967 h 4.69195 l 0.0529,-1.164161 -3.26319,-0.08819 -0.0706,-4.903613 z"
       style="fill:#63b4ec;fill-opacity:1;stroke:none;stroke-width:0.26458332px;stroke-linecap:butt;stroke-linejoin:miter;stroke-opacity:1" />
    <path
       id="path4584"
       transform="scale(0.26458333)"
       d="M 413.30078,340.71875 403,363.21875 h 5.80078 l 2,-4.59961 10.09961,-0.19922 2.40039,4.79883 h 5.89844 l -10.39844,-22.5 z m 2.59961,7.10156 3.29883,6.59961 -6.39844,0.0996 z"
       style="fill:#63b4ec;fill-opacity:1;stroke:none;stroke-width:0.99999994px;stroke-linecap:butt;stroke-linejoin:miter;stroke-opacity:1" />
    <path
       id="path4588"
       transform="scale(0.26458333)"
       d="m 433.09961,340.71875 0.30078,22.5 h 4.79883 v -7.19922 l 4.60156,-0.0996 5.39844,7.5 H 454 l -5.5,-7.90039 c 7.10566,-4.61713 6.37274,-11.64845 0.30078,-14.80078 z m 5.20117,4.5 h 7.29883 c 2.32225,0.96296 2.95381,4.74181 0,6.30078 h -7.39844 z"
       style="fill:#63b4ec;fill-opacity:1;stroke:none;stroke-width:0.99999994px;stroke-linecap:butt;stroke-linejoin:miter;stroke-opacity:1" />
    <path
       id="path4592"
       d="M 124.32771,92.821042 127,92.768125 127.0265,95.3875 c -3.21421,1.933509 -5.62049,0.583089 -6.00605,-2.248959 0.26733,-3.946439 4.88106,-3.688523 5.8473,-2.328332 l -0.97896,1.058333 c -1.1671,-1.008489 -3.13032,-0.447072 -3.38667,1.190625 0.5337,2.425631 2.18127,2.119483 3.14854,1.640416 l 0.0265,-0.873125 -1.27,-0.05292 z"
       style="fill:#63b4ec;fill-opacity:1;stroke:none;stroke-width:0.26458332px;stroke-linecap:butt;stroke-linejoin:miter;stroke-opacity:1" />
    <path
       id="path4594"
       d="m 128.50812,90.095828 0.10584,6.058961 h 4.81541 l 0.0529,-1.084789 -3.46604,0.02646 -0.0265,-1.402291 3.04271,0.02646 v -1.164167 l -3.04271,-0.05292 -0.0529,-1.296459 3.43959,-0.05292 v -1.058339 z"
       style="fill:#63b4ec;fill-opacity:1;stroke:none;stroke-width:0.26458332px;stroke-linecap:butt;stroke-linejoin:miter;stroke-opacity:1" />
    <path
       id="path4596"
       d="m 134.67291,90.095828 h 1.32292 l 3.175,3.757089 v -3.757089 h 1.37583 l -0.0794,6.058961 h -1.27 l -3.22792,-3.783539 -0.0265,3.783539 H 134.62 Z"
       style="fill:#63b4ec;fill-opacity:1;stroke:none;stroke-width:0.26458332px;stroke-linecap:butt;stroke-linejoin:miter;stroke-opacity:1" />
    <path
       id="path4598"
       d="m 141.57854,90.095828 0.0265,1.243547 h 2.03729 v 4.815414 h 1.37583 l 0.0265,-4.868331 h 1.79917 v -1.19063 z"
       style="fill:#63b4ec;fill-opacity:1;stroke:none;stroke-width:0.26458332px;stroke-linecap:butt;stroke-linejoin:miter;stroke-opacity:1" />
    <path
       id="path4600"
       d="m 148.19312,90.095828 -0.0265,6.058961 h 1.29646 l 0.0529,-6.058961 z"
       style="fill:#63b4ec;fill-opacity:1;stroke:none;stroke-width:0.26458332px;stroke-linecap:butt;stroke-linejoin:miter;stroke-opacity:1" />
    <path
       id="path4602"
       d="m 151.42104,90.095828 -0.0265,6.058961 h 1.37583 l 0.0265,-3.677706 3.175,3.677706 h 1.27 v -6.058961 h -1.50812 l 0.0794,3.757089 -3.09562,-3.757089 z"
       style="fill:#63b4ec;fill-opacity:1;stroke:none;stroke-width:0.26458332px;stroke-linecap:butt;stroke-linejoin:miter;stroke-opacity:1" />
    <path
       id="path4604"
       transform="scale(0.26458333)"
       d="m 607.30078,340.51953 -10.40039,22.90039 H 603 l 1.69922,-5 h 10 l 2.70117,5 h 5.90039 l -10.70117,-22.90039 z m 2.59961,7 3.09961,6.59961 h -6.30078 z"
       style="fill:#63b4ec;fill-opacity:1;stroke:none;stroke-width:0.99999994px;stroke-linecap:butt;stroke-linejoin:miter;stroke-opacity:1" />
  </g>
</svg>
